# Blender 4.3.2
# www.blender.org
mtllib generator.mtl
o Icosphere.001
v -0.000000 -0.500000 0.000000
v -0.262863 -0.223610 0.361804
v -0.425325 -0.223610 -0.138194
v -0.000000 -0.223608 -0.447213
v 0.425325 -0.223610 -0.138194
v 0.262863 -0.223610 0.361804
v -0.425325 0.223610 0.138194
v -0.262863 0.223610 -0.361804
v 0.262863 0.223610 -0.361804
v 0.425325 0.223610 0.138194
v 0.000000 0.223608 0.447213
v -0.000000 0.500000 0.000000
v -0.358282 -0.328760 -0.116411
v -0.249998 -0.425327 -0.081228
v -0.119426 -0.483975 -0.038803
v -0.073809 -0.483975 0.101590
v -0.154506 -0.425327 0.212661
v -0.221428 -0.328759 0.304773
v -0.340856 -0.251151 0.265970
v -0.404506 -0.262869 0.131434
v -0.432092 -0.251151 -0.014820
v 0.147619 -0.251150 0.406365
v 0.000000 -0.262868 0.425324
v -0.147619 -0.251150 0.406365
v 0.073809 -0.483975 0.101590
v 0.154506 -0.425327 0.212661
v 0.221428 -0.328759 0.304773
v -0.000000 -0.328757 -0.376721
v -0.000000 -0.425326 -0.262865
v -0.000000 -0.483974 -0.125573
v -0.358282 -0.251151 -0.241986
v -0.249998 -0.262868 -0.344095
v -0.119427 -0.251149 -0.415525
v 0.358282 -0.328760 -0.116411
v 0.249998 -0.425327 -0.081228
v 0.119426 -0.483975 -0.038803
v 0.119427 -0.251149 -0.415525
v 0.249998 -0.262868 -0.344095
v 0.358282 -0.251151 -0.241986
v 0.432092 -0.251151 -0.014820
v 0.404506 -0.262869 0.131434
v 0.340856 -0.251151 0.265970
v -0.073809 0.125575 0.478313
v -0.154506 -0.000000 0.475529
v -0.221429 -0.125575 0.430349
v 0.221429 -0.125575 0.430349
v 0.154506 0.000000 0.475529
v 0.073809 0.125575 0.478313
v -0.477711 0.125576 0.077608
v -0.500000 -0.000000 0.000000
v -0.477711 -0.125576 -0.077608
v -0.340858 -0.125576 0.343579
v -0.404508 0.000000 0.293893
v -0.432094 0.125576 0.218003
v -0.221429 0.125575 -0.430349
v -0.154506 -0.000000 -0.475529
v -0.073809 -0.125575 -0.478313
v -0.432094 -0.125576 -0.218003
v -0.404508 0.000000 -0.293893
v -0.340858 0.125576 -0.343579
v 0.340858 0.125576 -0.343579
v 0.404508 -0.000000 -0.293893
v 0.432094 -0.125576 -0.218003
v 0.073809 -0.125575 -0.478313
v 0.154506 0.000000 -0.475529
v 0.221429 0.125575 -0.430349
v 0.432094 0.125576 0.218003
v 0.404508 -0.000000 0.293893
v 0.340858 -0.125576 0.343579
v 0.477711 -0.125576 -0.077608
v 0.500000 0.000000 -0.000000
v 0.477711 0.125576 0.077608
v -0.119427 0.251149 0.415525
v -0.249998 0.262868 0.344095
v -0.358282 0.251151 0.241986
v -0.432092 0.251151 0.014820
v -0.404506 0.262869 -0.131434
v -0.340856 0.251151 -0.265970
v -0.147619 0.251150 -0.406365
v -0.000000 0.262868 -0.425324
v 0.147619 0.251150 -0.406365
v 0.340856 0.251151 -0.265970
v 0.404506 0.262869 -0.131434
v 0.432092 0.251151 0.014820
v 0.358282 0.251151 0.241986
v 0.249998 0.262868 0.344095
v 0.119427 0.251149 0.415525
v -0.119426 0.483975 0.038803
v -0.249998 0.425327 0.081228
v -0.358282 0.328760 0.116411
v 0.000000 0.328757 0.376721
v 0.000000 0.425326 0.262865
v -0.000000 0.483974 0.125574
v -0.073809 0.483975 -0.101590
v -0.154506 0.425327 -0.212661
v -0.221428 0.328759 -0.304773
v 0.073809 0.483975 -0.101590
v 0.154506 0.425327 -0.212661
v 0.221428 0.328759 -0.304773
v 0.119426 0.483975 0.038803
v 0.249998 0.425327 0.081228
v 0.358282 0.328760 0.116411
v 0.131431 0.447215 0.180900
v 0.131432 0.361805 0.319097
v 0.262864 0.361806 0.223605
v 0.212660 0.447215 -0.069099
v 0.344092 0.361806 -0.026395
v 0.293889 0.361806 -0.180902
v -0.000000 0.447215 -0.223605
v 0.081228 0.361805 -0.335408
v -0.081229 0.361805 -0.335408
v -0.212660 0.447215 -0.069099
v -0.293889 0.361806 -0.180902
v -0.344092 0.361806 -0.026395
v -0.131431 0.447215 0.180900
v -0.262864 0.361806 0.223605
v -0.131432 0.361805 0.319097
v 0.212661 0.138198 0.430902
v 0.293891 0.000000 0.404510
v 0.344095 0.138199 0.335410
v 0.475528 0.138199 -0.069099
v 0.475528 -0.000000 -0.154508
v 0.425324 0.138199 -0.223608
v 0.081229 0.138198 -0.473607
v -0.000000 0.000000 -0.500000
v -0.081229 0.138198 -0.473606
v -0.425324 0.138198 -0.223608
v -0.475528 -0.000000 -0.154509
v -0.475528 0.138198 -0.069100
v -0.344095 0.138198 0.335410
v -0.293891 -0.000001 0.404509
v -0.212662 0.138197 0.430902
v 0.475528 0.000000 0.154509
v 0.425324 -0.138199 0.223608
v 0.475527 -0.138199 0.069100
v 0.293892 0.000000 -0.404509
v 0.344095 -0.138199 -0.335409
v 0.212662 -0.138198 -0.430902
v -0.293892 0.000000 -0.404509
v -0.212662 -0.138198 -0.430902
v -0.344095 -0.138199 -0.335409
v -0.475528 0.000000 0.154509
v -0.475527 -0.138199 0.069100
v -0.425324 -0.138199 0.223608
v 0.000000 0.000000 0.500000
v -0.081229 -0.138198 0.473607
v 0.081229 -0.138198 0.473607
v 0.293890 -0.361806 0.180902
v 0.212661 -0.447215 0.069098
v 0.344093 -0.361805 0.026395
v 0.262864 -0.361806 -0.223605
v 0.131431 -0.447214 -0.180901
v 0.131431 -0.361805 -0.319097
v -0.131432 -0.361805 -0.319097
v -0.131432 -0.447214 -0.180901
v -0.262864 -0.361805 -0.223605
v 0.081228 -0.361805 0.335409
v -0.081229 -0.361805 0.335409
v -0.000000 -0.447214 0.223605
v -0.344093 -0.361806 0.026395
v -0.212660 -0.447215 0.069099
v -0.293890 -0.361805 0.180903
v -0.014779 0.034088 0.080000
v -0.000000 0.040000 0.071105
v -0.000000 -0.040000 0.071105
v 0.014779 -0.034088 0.080000
v -0.160000 -0.400000 0.071105
v -0.121311 -0.340081 0.080000
v -0.184705 -0.033882 0.080000
v -0.200000 -0.040000 0.071105
v 0.200000 0.040000 0.071105
v 0.184705 0.033882 0.080000
v 0.121311 0.340081 0.080000
v 0.160000 0.400000 0.071105
v -0.000000 0.040000 -0.071105
v -0.014779 0.034088 -0.080000
v 0.014779 -0.034088 -0.080000
v -0.000000 -0.040000 -0.071105
v -0.121311 -0.340081 -0.080000
v -0.160000 -0.400000 -0.071105
v -0.200000 -0.040000 -0.071105
v -0.184705 -0.033882 -0.080000
v 0.184705 0.033882 -0.080000
v 0.200000 0.040000 -0.071105
v 0.160000 0.400000 -0.071105
v 0.121311 0.340081 -0.080000
vn -0.0000 1.0000 -0.0000
vn 0.2480 0.9654 0.0806
vn 0.1533 0.9654 -0.2110
vn 0.5257 0.4472 -0.7236
vn 0.2857 0.5038 -0.8152
vn 0.4390 0.6650 -0.6042
vn -0.0000 0.9654 0.2608
vn -0.2480 0.9654 0.0806
vn -0.1533 0.9654 -0.2110
vn 0.4390 0.2431 -0.8650
vn 0.8506 0.4472 0.2764
vn 0.9583 0.2431 0.1502
vn 0.8636 0.5038 0.0198
vn -0.0000 0.4472 0.8944
vn 0.1533 0.2431 0.9578
vn 0.2480 0.5038 0.8274
vn -0.8506 0.4472 0.2764
vn -0.8636 0.2431 0.4417
vn -0.7103 0.5038 0.4915
vn -0.5257 0.4472 -0.7236
vn -0.6870 0.2431 -0.6848
vn -0.6870 0.5038 -0.5237
vn 0.6870 0.2431 -0.6848
vn 0.8636 0.2431 0.4417
vn -0.1533 0.2431 0.9578
vn -0.9583 0.2431 0.1502
vn -0.4390 0.2431 -0.8650
vn 0.8506 -0.4472 -0.2764
vn 0.7103 -0.6650 -0.2308
vn 0.7103 -0.5038 -0.4915
vn 0.5257 -0.4472 0.7236
vn 0.4390 -0.6650 0.6042
vn 0.6870 -0.5038 0.5237
vn -0.5257 -0.4472 0.7236
vn -0.4390 -0.6650 0.6042
vn -0.2857 -0.5038 0.8152
vn -0.8506 -0.4472 -0.2764
vn -0.7103 -0.6650 -0.2308
vn -0.8636 -0.5038 -0.0198
vn -0.0000 -0.4472 -0.8944
vn -0.0000 -0.6650 -0.7469
vn -0.2480 -0.5038 -0.8274
vn -0.0000 -0.9654 -0.2607
vn -0.0000 -1.0000 -0.0000
vn -0.2480 -0.9654 -0.0806
vn -0.0000 -0.8507 -0.5257
vn -0.2675 -0.8904 -0.3682
vn -0.2675 -0.7275 -0.6317
vn -0.5000 -0.8507 -0.1625
vn -0.5182 -0.7276 -0.4496
vn -0.5000 -0.5257 -0.6882
vn -0.7103 -0.5038 -0.4915
vn -0.1533 -0.9654 0.2110
vn -0.4329 -0.8904 0.1406
vn -0.6835 -0.7276 0.0592
vn -0.3090 -0.8507 0.4253
vn -0.5878 -0.7276 0.3539
vn -0.8090 -0.5257 0.2629
vn -0.6870 -0.5038 0.5237
vn 0.1533 -0.9654 0.2110
vn -0.0000 -0.8904 0.4551
vn -0.1549 -0.7276 0.6683
vn 0.3090 -0.8507 0.4253
vn 0.1549 -0.7275 0.6683
vn -0.0000 -0.5257 0.8506
vn 0.2857 -0.5038 0.8152
vn 0.2480 -0.9654 -0.0806
vn 0.4329 -0.8904 0.1406
vn 0.5878 -0.7276 0.3539
vn 0.5000 -0.8507 -0.1625
vn 0.6835 -0.7276 0.0592
vn 0.8090 -0.5257 0.2629
vn 0.8636 -0.5038 -0.0198
vn 0.2675 -0.8904 -0.3682
vn 0.5182 -0.7276 -0.4496
vn 0.2675 -0.7275 -0.6317
vn 0.5000 -0.5257 -0.6882
vn 0.2480 -0.5038 -0.8274
vn -0.1533 -0.2431 -0.9578
vn -0.3090 -0.0000 -0.9511
vn -0.4329 -0.2724 -0.8593
vn -0.5878 -0.0089 -0.8090
vn -0.6835 -0.2724 -0.6772
vn -0.8090 -0.0000 -0.5878
vn -0.8636 -0.2431 -0.4417
vn -0.9583 -0.2431 -0.1502
vn -1.0000 -0.0000 -0.0000
vn -0.9510 -0.2724 0.1461
vn -0.9510 -0.0089 0.3090
vn -0.8553 -0.2724 0.4408
vn -0.8090 -0.0000 0.5878
vn -0.6870 -0.2431 0.6848
vn -0.4390 -0.2431 0.8650
vn -0.3090 -0.0000 0.9511
vn -0.1549 -0.2724 0.9496
vn -0.0000 -0.0089 1.0000
vn 0.1549 -0.2724 0.9496
vn 0.3090 -0.0000 0.9511
vn 0.4390 -0.2431 0.8650
vn 0.6870 -0.2431 0.6848
vn 0.8090 -0.0000 0.5878
vn 0.8553 -0.2724 0.4408
vn 0.9510 -0.0089 0.3090
vn 0.9510 -0.2724 0.1461
vn 1.0000 -0.0000 -0.0000
vn 0.9583 -0.2431 -0.1502
vn 0.8636 -0.2431 -0.4417
vn 0.8090 -0.0000 -0.5878
vn 0.6835 -0.2724 -0.6772
vn 0.5878 -0.0089 -0.8090
vn 0.4329 -0.2724 -0.8593
vn 0.3090 -0.0000 -0.9511
vn 0.1533 -0.2431 -0.9578
vn -0.9510 0.0089 -0.3090
vn -0.8553 0.2724 -0.4408
vn -0.9510 0.2724 -0.1461
vn -0.8090 0.5257 -0.2629
vn -0.8636 0.5038 0.0198
vn -0.5878 0.0089 0.8090
vn -0.6835 0.2724 0.6772
vn -0.4329 0.2724 0.8593
vn -0.5000 0.5257 0.6882
vn -0.2480 0.5038 0.8274
vn 0.5878 0.0089 0.8090
vn 0.4329 0.2724 0.8593
vn 0.6835 0.2724 0.6772
vn 0.5000 0.5257 0.6882
vn 0.7103 0.5038 0.4915
vn 0.9510 0.0089 -0.3090
vn 0.9510 0.2724 -0.1461
vn 0.8553 0.2724 -0.4408
vn 0.8090 0.5257 -0.2629
vn 0.6870 0.5038 -0.5237
vn -0.0000 0.0089 -1.0000
vn 0.1549 0.2724 -0.9496
vn -0.1549 0.2724 -0.9496
vn -0.0000 0.5257 -0.8506
vn -0.2857 0.5038 -0.8152
vn -0.4390 0.6650 -0.6042
vn -0.3090 0.8507 -0.4253
vn -0.5878 0.7276 -0.3539
vn -0.4329 0.8904 -0.1406
vn -0.6835 0.7276 -0.0592
vn -0.5000 0.8507 0.1625
vn -0.7103 0.6650 0.2308
vn -0.5182 0.7276 0.4496
vn -0.2675 0.8904 0.3682
vn -0.2675 0.7275 0.6317
vn -0.0000 0.8507 0.5257
vn -0.0000 0.6650 0.7469
vn 0.2675 0.7275 0.6317
vn 0.2675 0.8904 0.3682
vn 0.5182 0.7275 0.4496
vn 0.5000 0.8507 0.1625
vn 0.7103 0.6650 0.2308
vn -0.1549 0.7275 -0.6683
vn 0.1549 0.7275 -0.6683
vn -0.0000 0.8904 -0.4551
vn 0.3090 0.8507 -0.4253
vn 0.6835 0.7276 -0.0592
vn 0.4329 0.8904 -0.1406
vn 0.5878 0.7276 -0.3539
vn 0.9138 -0.4061 -0.0000
vn -0.9138 0.4061 -0.0000
vn -0.0000 -0.0000 1.0000
vn -0.0000 -0.0000 -1.0000
vn -0.7740 0.6332 -0.0000
vn 0.7740 -0.6332 -0.0000
vn 0.0009 0.8322 0.5545
vn 0.5740 -0.2551 0.7781
vn 0.5766 -0.4719 0.6670
vn -0.5766 0.4719 0.6670
vn -0.5713 0.2541 0.7804
vn -0.0000 -0.8239 0.5667
vn -0.0000 0.8239 -0.5667
vn 0.5713 -0.2541 -0.7804
vn 0.5755 -0.4709 -0.6687
vn -0.5755 0.4709 -0.6687
vn -0.5740 0.2551 -0.7781
vn -0.0009 -0.8322 -0.5545
vn -0.0000 0.8239 0.5667
vn 0.5713 -0.2541 0.7804
vn 0.5755 -0.4709 0.6687
vn -0.5755 0.4709 0.6687
vn -0.5740 0.2551 0.7781
vn -0.0009 -0.8322 0.5545
vn 0.0009 0.8322 -0.5545
vn 0.5740 -0.2551 -0.7781
vn 0.5766 -0.4719 -0.6670
vn -0.5766 0.4719 -0.6670
vn -0.5713 0.2541 -0.7804
vn -0.0000 -0.8239 -0.5667
s 1
f 1//1 15//2 16//3
f 2//4 24//5 18//6
f 1//1 30//7 15//2
f 1//1 36//8 30//7
f 1//1 25//9 36//8
f 2//4 45//10 24//5
f 3//11 51//12 21//13
f 4//14 57//15 33//16
f 5//17 63//18 39//19
f 6//20 69//21 42//22
f 2//4 52//23 45//10
f 3//11 58//24 51//12
f 4//14 64//25 57//15
f 5//17 70//26 63//18
f 6//20 46//27 69//21
f 7//28 90//29 75//30
f 8//31 96//32 78//33
f 9//34 99//35 81//36
f 10//37 102//38 84//39
f 11//40 91//41 87//42
f 93//43 12//44 100//45
f 92//46 93//43 103//47
f 91//41 92//46 104//48
f 93//43 100//45 103//47
f 103//47 100//45 101//49
f 92//46 103//47 104//48
f 104//48 103//47 105//50
f 103//47 101//49 105//50
f 105//50 101//49 102//38
f 91//41 104//48 87//42
f 87//42 104//48 86//51
f 104//48 105//50 86//51
f 86//51 105//50 85//52
f 105//50 102//38 85//52
f 85//52 102//38 10//37
f 100//45 12//44 97//53
f 101//49 100//45 106//54
f 102//38 101//49 107//55
f 100//45 97//53 106//54
f 106//54 97//53 98//56
f 101//49 106//54 107//55
f 107//55 106//54 108//57
f 106//54 98//56 108//57
f 108//57 98//56 99//35
f 102//38 107//55 84//39
f 84//39 107//55 83//58
f 107//55 108//57 83//58
f 83//58 108//57 82//59
f 108//57 99//35 82//59
f 82//59 99//35 9//34
f 97//53 12//44 94//60
f 98//56 97//53 109//61
f 99//35 98//56 110//62
f 97//53 94//60 109//61
f 109//61 94//60 95//63
f 98//56 109//61 110//62
f 110//62 109//61 111//64
f 109//61 95//63 111//64
f 111//64 95//63 96//32
f 99//35 110//62 81//36
f 81//36 110//62 80//65
f 110//62 111//64 80//65
f 80//65 111//64 79//66
f 111//64 96//32 79//66
f 79//66 96//32 8//31
f 94//60 12//44 88//67
f 95//63 94//60 112//68
f 96//32 95//63 113//69
f 94//60 88//67 112//68
f 112//68 88//67 89//70
f 95//63 112//68 113//69
f 113//69 112//68 114//71
f 112//68 89//70 114//71
f 114//71 89//70 90//29
f 96//32 113//69 78//33
f 78//33 113//69 77//72
f 113//69 114//71 77//72
f 77//72 114//71 76//73
f 114//71 90//29 76//73
f 76//73 90//29 7//28
f 88//67 12//44 93//43
f 89//70 88//67 115//74
f 90//29 89//70 116//75
f 88//67 93//43 115//74
f 115//74 93//43 92//46
f 89//70 115//74 116//75
f 116//75 115//74 117//76
f 115//74 92//46 117//76
f 117//76 92//46 91//41
f 90//29 116//75 75//30
f 75//30 116//75 74//77
f 116//75 117//76 74//77
f 74//77 117//76 73//78
f 117//76 91//41 73//78
f 73//78 91//41 11//40
f 48//79 11//40 87//42
f 47//80 48//79 118//81
f 46//27 47//80 119//82
f 48//79 87//42 118//81
f 118//81 87//42 86//51
f 47//80 118//81 119//82
f 119//82 118//81 120//83
f 118//81 86//51 120//83
f 120//83 86//51 85//52
f 46//27 119//82 69//21
f 69//21 119//82 68//84
f 119//82 120//83 68//84
f 68//84 120//83 67//85
f 120//83 85//52 67//85
f 67//85 85//52 10//37
f 72//86 10//37 84//39
f 71//87 72//86 121//88
f 70//26 71//87 122//89
f 72//86 84//39 121//88
f 121//88 84//39 83//58
f 71//87 121//88 122//89
f 122//89 121//88 123//90
f 121//88 83//58 123//90
f 123//90 83//58 82//59
f 70//26 122//89 63//18
f 63//18 122//89 62//91
f 122//89 123//90 62//91
f 62//91 123//90 61//92
f 123//90 82//59 61//92
f 61//92 82//59 9//34
f 66//93 9//34 81//36
f 65//94 66//93 124//95
f 64//25 65//94 125//96
f 66//93 81//36 124//95
f 124//95 81//36 80//65
f 65//94 124//95 125//96
f 125//96 124//95 126//97
f 124//95 80//65 126//97
f 126//97 80//65 79//66
f 64//25 125//96 57//15
f 57//15 125//96 56//98
f 125//96 126//97 56//98
f 56//98 126//97 55//99
f 126//97 79//66 55//99
f 55//99 79//66 8//31
f 60//100 8//31 78//33
f 59//101 60//100 127//102
f 58//24 59//101 128//103
f 60//100 78//33 127//102
f 127//102 78//33 77//72
f 59//101 127//102 128//103
f 128//103 127//102 129//104
f 127//102 77//72 129//104
f 129//104 77//72 76//73
f 58//24 128//103 51//12
f 51//12 128//103 50//105
f 128//103 129//104 50//105
f 50//105 129//104 49//106
f 129//104 76//73 49//106
f 49//106 76//73 7//28
f 54//107 7//28 75//30
f 53//108 54//107 130//109
f 52//23 53//108 131//110
f 54//107 75//30 130//109
f 130//109 75//30 74//77
f 53//108 130//109 131//110
f 131//110 130//109 132//111
f 130//109 74//77 132//111
f 132//111 74//77 73//78
f 52//23 131//110 45//10
f 45//10 131//110 44//112
f 131//110 132//111 44//112
f 44//112 132//111 43//113
f 132//111 73//78 43//113
f 43//113 73//78 11//40
f 67//85 10//37 72//86
f 68//84 67//85 133//114
f 69//21 68//84 134//115
f 67//85 72//86 133//114
f 133//114 72//86 71//87
f 68//84 133//114 134//115
f 134//115 133//114 135//116
f 133//114 71//87 135//116
f 135//116 71//87 70//26
f 69//21 134//115 42//22
f 42//22 134//115 41//117
f 134//115 135//116 41//117
f 41//117 135//116 40//118
f 135//116 70//26 40//118
f 40//118 70//26 5//17
f 61//92 9//34 66//93
f 62//91 61//92 136//119
f 63//18 62//91 137//120
f 61//92 66//93 136//119
f 136//119 66//93 65//94
f 62//91 136//119 137//120
f 137//120 136//119 138//121
f 136//119 65//94 138//121
f 138//121 65//94 64//25
f 63//18 137//120 39//19
f 39//19 137//120 38//122
f 137//120 138//121 38//122
f 38//122 138//121 37//123
f 138//121 64//25 37//123
f 37//123 64//25 4//14
f 55//99 8//31 60//100
f 56//98 55//99 139//124
f 57//15 56//98 140//125
f 55//99 60//100 139//124
f 139//124 60//100 59//101
f 56//98 139//124 140//125
f 140//125 139//124 141//126
f 139//124 59//101 141//126
f 141//126 59//101 58//24
f 57//15 140//125 33//16
f 33//16 140//125 32//127
f 140//125 141//126 32//127
f 32//127 141//126 31//128
f 141//126 58//24 31//128
f 31//128 58//24 3//11
f 49//106 7//28 54//107
f 50//105 49//106 142//129
f 51//12 50//105 143//130
f 49//106 54//107 142//129
f 142//129 54//107 53//108
f 50//105 142//129 143//130
f 143//130 142//129 144//131
f 142//129 53//108 144//131
f 144//131 53//108 52//23
f 51//12 143//130 21//13
f 21//13 143//130 20//132
f 143//130 144//131 20//132
f 20//132 144//131 19//133
f 144//131 52//23 19//133
f 19//133 52//23 2//4
f 43//113 11//40 48//79
f 44//112 43//113 145//134
f 45//10 44//112 146//135
f 43//113 48//79 145//134
f 145//134 48//79 47//80
f 44//112 145//134 146//135
f 146//135 145//134 147//136
f 145//134 47//80 147//136
f 147//136 47//80 46//27
f 45//10 146//135 24//5
f 24//5 146//135 23//137
f 146//135 147//136 23//137
f 23//137 147//136 22//138
f 147//136 46//27 22//138
f 22//138 46//27 6//20
f 27//139 6//20 42//22
f 26//140 27//139 148//141
f 25//9 26//140 149//142
f 27//139 42//22 148//141
f 148//141 42//22 41//117
f 26//140 148//141 149//142
f 149//142 148//141 150//143
f 148//141 41//117 150//143
f 150//143 41//117 40//118
f 25//9 149//142 36//8
f 36//8 149//142 35//144
f 149//142 150//143 35//144
f 35//144 150//143 34//145
f 150//143 40//118 34//145
f 34//145 40//118 5//17
f 34//145 5//17 39//19
f 35//144 34//145 151//146
f 36//8 35//144 152//147
f 34//145 39//19 151//146
f 151//146 39//19 38//122
f 35//144 151//146 152//147
f 152//147 151//146 153//148
f 151//146 38//122 153//148
f 153//148 38//122 37//123
f 36//8 152//147 30//7
f 30//7 152//147 29//149
f 152//147 153//148 29//149
f 29//149 153//148 28//150
f 153//148 37//123 28//150
f 28//150 37//123 4//14
f 28//150 4//14 33//16
f 29//149 28//150 154//151
f 30//7 29//149 155//152
f 28//150 33//16 154//151
f 154//151 33//16 32//127
f 29//149 154//151 155//152
f 155//152 154//151 156//153
f 154//151 32//127 156//153
f 156//153 32//127 31//128
f 30//7 155//152 15//2
f 15//2 155//152 14//154
f 155//152 156//153 14//154
f 14//154 156//153 13//155
f 156//153 31//128 13//155
f 13//155 31//128 3//11
f 22//138 6//20 27//139
f 23//137 22//138 157//156
f 24//5 23//137 158//157
f 22//138 27//139 157//156
f 157//156 27//139 26//140
f 23//137 157//156 158//157
f 158//157 157//156 159//158
f 157//156 26//140 159//158
f 159//158 26//140 25//9
f 24//5 158//157 18//6
f 18//6 158//157 17//159
f 158//157 159//158 17//159
f 17//159 159//158 16//3
f 159//158 25//9 16//3
f 16//3 25//9 1//1
f 13//155 3//11 21//13
f 14//154 13//155 160//160
f 15//2 14//154 161//161
f 13//155 21//13 160//160
f 160//160 21//13 20//132
f 14//154 160//160 161//161
f 161//161 160//160 162//162
f 160//160 20//132 162//162
f 162//162 20//132 19//133
f 15//2 161//161 16//3
f 16//3 161//161 17//159
f 161//161 162//162 17//159
f 17//159 162//162 18//6
f 162//162 19//133 18//6
f 18//6 19//133 2//4
s 0
f 175//163 174//163 164//163
f 178//164 167//164 165//164
f 163//165 173//165 169//165
f 183//166 179//166 177//166
f 176//166 182//166 186//166
f 185//167 170//167 174//167
f 163//165 166//165 172//165
f 180//168 171//168 167//168
f 176//166 177//166 182//166
f 172//165 166//165 168//165
f 181//44 165//44 170//44
f 172//169 164//169 163//169
f 173//170 164//170 174//170
f 168//171 171//171 172//171
f 173//172 170//172 169//172
f 165//173 168//173 166//173
f 165//174 169//174 170//174
f 183//175 175//175 184//175
f 186//176 175//176 176//176
f 179//177 184//177 180//177
f 186//178 181//178 185//178
f 178//179 179//179 180//179
f 178//180 182//180 177//180
f 184//1 164//1 171//1
f 175//163 185//163 174//163
f 178//164 180//164 167//164
f 185//167 181//167 170//167
f 163//165 169//165 166//165
f 180//168 184//168 171//168
f 176//166 183//166 177//166
f 181//44 178//44 165//44
f 172//181 171//181 164//181
f 173//182 163//182 164//182
f 168//183 167//183 171//183
f 173//184 174//184 170//184
f 165//185 167//185 168//185
f 165//186 166//186 169//186
f 183//187 176//187 175//187
f 186//188 185//188 175//188
f 179//189 183//189 184//189
f 186//190 182//190 181//190
f 178//191 177//191 179//191
f 178//192 181//192 182//192
f 184//1 175//1 164//1
