# Blender 4.2.1 LTS
# www.blender.org
o Cube
v 0.500000 0.000000 0.000000
v 0.000000 0.000000 -0.500000
v 0.000000 0.000000 0.000000
v 0.250000 0.000000 -0.500000
v 0.250000 0.000000 -0.250000
v 0.500000 0.000000 -0.250000
v 0.495196 0.000000 -0.298773
v 0.480970 0.000000 -0.345671
v 0.457867 0.000000 -0.388893
v 0.426777 0.000000 -0.426777
v 0.388893 0.000000 -0.457867
v 0.345671 0.000000 -0.480970
v 0.298773 0.000000 -0.495196
v -0.500000 0.000000 0.000000
v -0.250000 0.000000 -0.500000
v -0.250000 0.000000 -0.250000
v -0.500000 0.000000 -0.250000
v -0.495196 0.000000 -0.298773
v -0.480970 0.000000 -0.345671
v -0.457867 0.000000 -0.388893
v -0.426777 0.000000 -0.426777
v -0.388893 0.000000 -0.457867
v -0.345671 0.000000 -0.480970
v -0.298773 0.000000 -0.495196
v 0.000000 0.000000 0.500000
v 0.250000 0.000000 0.500000
v 0.250000 0.000000 0.250000
v 0.500000 0.000000 0.250000
v 0.495196 0.000000 0.298773
v 0.480970 0.000000 0.345671
v 0.457867 0.000000 0.388893
v 0.426777 0.000000 0.426777
v 0.388893 0.000000 0.457867
v 0.345671 0.000000 0.480970
v 0.298773 0.000000 0.495196
v -0.250000 0.000000 0.500000
v -0.250000 0.000000 0.250000
v -0.500000 0.000000 0.250000
v -0.495196 0.000000 0.298773
v -0.480970 0.000000 0.345671
v -0.457867 0.000000 0.388893
v -0.426777 0.000000 0.426777
v -0.388893 0.000000 0.457867
v -0.345671 0.000000 0.480970
v -0.298773 0.000000 0.495196
vn -0.0000 1.0000 -0.0000
vt 0.750000 0.750000
vt 1.000000 0.500000
vt 1.000000 0.750000
vt 0.500000 1.000000
vt 0.750000 1.000000
vt 0.995197 0.798773
vt 0.980970 0.845671
vt 0.957867 0.888893
vt 0.926777 0.926777
vt 0.888893 0.957867
vt 0.845671 0.980970
vt 0.798773 0.995196
vt 0.500000 0.500000
vt 0.250000 0.750000
vt 0.000000 0.750000
vt 0.000000 0.500000
vt 0.250000 1.000000
vt 0.004804 0.798773
vt 0.019030 0.845671
vt 0.042133 0.888893
vt 0.073223 0.926777
vt 0.111107 0.957867
vt 0.154329 0.980970
vt 0.201227 0.995196
vt 0.750000 0.250000
vt 1.000000 0.250000
vt 0.500000 0.000000
vt 0.750000 0.000000
vt 0.995197 0.201227
vt 0.980970 0.154329
vt 0.957867 0.111107
vt 0.926777 0.073223
vt 0.888893 0.042133
vt 0.845671 0.019030
vt 0.798773 0.004804
vt 0.250000 0.250000
vt 0.000000 0.250000
vt 0.250000 0.000000
vt 0.004804 0.201227
vt 0.019030 0.154329
vt 0.042133 0.111107
vt 0.073223 0.073223
vt 0.111107 0.042133
vt 0.154329 0.019030
vt 0.201227 0.004804
s 0
f 5/1/1 1/2/1 6/3/1
f 2/4/1 5/1/1 4/5/1
f 5/1/1 6/3/1 7/6/1
f 5/1/1 7/6/1 8/7/1
f 5/1/1 8/7/1 9/8/1
f 5/1/1 9/8/1 10/9/1
f 5/1/1 10/9/1 11/10/1
f 5/1/1 11/10/1 12/11/1
f 5/1/1 12/11/1 13/12/1
f 5/1/1 13/12/1 4/5/1
f 5/1/1 3/13/1 1/2/1
f 2/4/1 3/13/1 5/1/1
f 16/14/1 17/15/1 14/16/1
f 2/4/1 15/17/1 16/14/1
f 16/14/1 18/18/1 17/15/1
f 16/14/1 19/19/1 18/18/1
f 16/14/1 20/20/1 19/19/1
f 16/14/1 21/21/1 20/20/1
f 16/14/1 22/22/1 21/21/1
f 16/14/1 23/23/1 22/22/1
f 16/14/1 24/24/1 23/23/1
f 16/14/1 15/17/1 24/24/1
f 16/14/1 14/16/1 3/13/1
f 2/4/1 16/14/1 3/13/1
f 27/25/1 28/26/1 1/2/1
f 25/27/1 26/28/1 27/25/1
f 27/25/1 29/29/1 28/26/1
f 27/25/1 30/30/1 29/29/1
f 27/25/1 31/31/1 30/30/1
f 27/25/1 32/32/1 31/31/1
f 27/25/1 33/33/1 32/32/1
f 27/25/1 34/34/1 33/33/1
f 27/25/1 35/35/1 34/34/1
f 27/25/1 26/28/1 35/35/1
f 27/25/1 1/2/1 3/13/1
f 25/27/1 27/25/1 3/13/1
f 37/36/1 14/16/1 38/37/1
f 25/27/1 37/36/1 36/38/1
f 37/36/1 38/37/1 39/39/1
f 37/36/1 39/39/1 40/40/1
f 37/36/1 40/40/1 41/41/1
f 37/36/1 41/41/1 42/42/1
f 37/36/1 42/42/1 43/43/1
f 37/36/1 43/43/1 44/44/1
f 37/36/1 44/44/1 45/45/1
f 37/36/1 45/45/1 36/38/1
f 37/36/1 3/13/1 14/16/1
f 25/27/1 3/13/1 37/36/1
