# Blender 4.3.2
# www.blender.org
o SelectionIndicator
v -0.640000 -0.630000 -0.040000
v -0.630000 -0.640000 -0.040000
v -0.650000 -0.650000 -0.050000
v -0.637071 -0.637071 -0.040000
v -0.640000 -0.640000 -0.045774
v -0.640000 -0.642929 -0.047071
v -0.642929 -0.640000 -0.047071
v 0.630000 -0.640000 -0.040000
v 0.640000 -0.630000 -0.040000
v 0.650000 -0.650000 -0.050000
v 0.637071 -0.637071 -0.040000
v 0.640000 -0.640000 -0.045774
v 0.642929 -0.640000 -0.047071
v 0.640000 -0.642929 -0.047071
v -0.640000 0.630000 -0.040000
v -0.650000 0.650000 -0.050000
v -0.630000 0.640000 -0.040000
v -0.642929 0.640000 -0.047071
v -0.640000 0.640000 -0.045774
v -0.640000 0.642929 -0.047071
v -0.637071 0.637071 -0.040000
v 0.640000 0.630000 -0.040000
v 0.630000 0.640000 -0.040000
v 0.650000 0.650000 -0.050000
v 0.637071 0.637071 -0.040000
v 0.640000 0.640000 -0.045774
v 0.640000 0.642929 -0.047071
v 0.642929 0.640000 -0.047071
v -0.704000 -0.694000 -0.040000
v -0.694000 -0.694000 -0.050000
v -0.694000 -0.704000 -0.040000
v -0.701071 -0.694000 -0.047071
v -0.699774 -0.699774 -0.045773
v -0.694000 -0.701071 -0.047071
v -0.701071 -0.701071 -0.040000
v 0.694000 -0.704000 -0.040000
v 0.694000 -0.694000 -0.050000
v 0.704000 -0.694000 -0.040000
v 0.694000 -0.701071 -0.047071
v 0.699774 -0.699774 -0.045773
v 0.701071 -0.694000 -0.047071
v 0.701071 -0.701071 -0.040000
v -0.704000 0.694000 -0.040000
v -0.694000 0.704000 -0.040000
v -0.694000 0.694000 -0.050000
v -0.701071 0.701071 -0.040000
v -0.699774 0.699774 -0.045774
v -0.694000 0.701071 -0.047071
v -0.701071 0.694000 -0.047071
v 0.704000 0.694000 -0.040000
v 0.694000 0.694000 -0.050000
v 0.694000 0.704000 -0.040000
v 0.701071 0.694000 -0.047071
v 0.699774 0.699774 -0.045774
v 0.694000 0.701071 -0.047071
v 0.701071 0.701071 -0.040000
v -0.640000 -0.630000 0.040000
v -0.650000 -0.650000 0.050000
v -0.630000 -0.640000 0.040000
v -0.642929 -0.640000 0.047071
v -0.640000 -0.640000 0.045774
v -0.640000 -0.642929 0.047071
v -0.637071 -0.637071 0.040000
v 0.630000 -0.640000 0.040000
v 0.650000 -0.650000 0.050000
v 0.640000 -0.630000 0.040000
v 0.640000 -0.642929 0.047071
v 0.640000 -0.640000 0.045774
v 0.642929 -0.640000 0.047071
v 0.637071 -0.637071 0.040000
v -0.640000 0.630000 0.040000
v -0.630000 0.640000 0.040000
v -0.650000 0.650000 0.050000
v -0.637071 0.637071 0.040000
v -0.640000 0.640000 0.045774
v -0.640000 0.642929 0.047071
v -0.642929 0.640000 0.047071
v 0.640000 0.630000 0.040000
v 0.650000 0.650000 0.050000
v 0.630000 0.640000 0.040000
v 0.642929 0.640000 0.047071
v 0.640000 0.640000 0.045774
v 0.640000 0.642929 0.047071
v 0.637071 0.637071 0.040000
v -0.704000 -0.694000 0.040000
v -0.694000 -0.704000 0.040000
v -0.694000 -0.694000 0.050000
v -0.701071 -0.701071 0.040000
v -0.699774 -0.699774 0.045774
v -0.694000 -0.701071 0.047071
v -0.701071 -0.694000 0.047071
v 0.694000 -0.704000 0.040000
v 0.704000 -0.694000 0.040000
v 0.694000 -0.694000 0.050000
v 0.701071 -0.701071 0.040000
v 0.699774 -0.699774 0.045774
v 0.701071 -0.694000 0.047071
v 0.694000 -0.701071 0.047071
v -0.704000 0.694000 0.040000
v -0.694000 0.694000 0.050000
v -0.694000 0.704000 0.040000
v -0.701071 0.694000 0.047071
v -0.699774 0.699774 0.045773
v -0.694000 0.701071 0.047071
v -0.701071 0.701071 0.040000
v 0.704000 0.694000 0.040000
v 0.694000 0.704000 0.040000
v 0.694000 0.694000 0.050000
v 0.701071 0.701071 0.040000
v 0.699774 0.699774 0.045773
v 0.694000 0.701071 0.047071
v 0.701071 0.694000 0.047071
vn 0.9579 0.1498 -0.2451
vn 0.1498 0.9579 -0.2451
vn 0.0488 0.0488 -0.9976
vn 0.6674 0.6674 -0.3304
vn 0.4437 0.4437 -0.7786
vn 0.1746 0.4063 -0.8969
vn 0.4063 0.1746 -0.8969
vn -0.1498 0.9579 -0.2451
vn -0.9579 0.1498 -0.2451
vn -0.0488 0.0488 -0.9976
vn -0.6674 0.6674 -0.3304
vn -0.4437 0.4437 -0.7786
vn -0.4063 0.1746 -0.8969
vn -0.1746 0.4063 -0.8969
vn 0.9579 -0.1498 -0.2451
vn 0.0488 -0.0488 -0.9976
vn 0.1498 -0.9579 -0.2451
vn 0.4063 -0.1746 -0.8969
vn 0.4437 -0.4437 -0.7786
vn 0.1746 -0.4063 -0.8969
vn 0.6674 -0.6674 -0.3304
vn -0.9579 -0.1498 -0.2451
vn -0.1498 -0.9579 -0.2451
vn -0.0488 -0.0488 -0.9976
vn -0.6674 -0.6674 -0.3304
vn -0.4437 -0.4437 -0.7786
vn -0.1746 -0.4063 -0.8969
vn -0.4063 -0.1746 -0.8969
vn -0.9673 -0.1794 -0.1794
vn -0.1794 -0.1794 -0.9673
vn -0.1794 -0.9673 -0.1794
vn -0.6993 -0.1479 -0.6993
vn -0.5774 -0.5774 -0.5773
vn -0.1479 -0.6993 -0.6993
vn -0.6993 -0.6993 -0.1479
vn 0.1794 -0.9673 -0.1794
vn 0.1794 -0.1794 -0.9673
vn 0.9673 -0.1794 -0.1794
vn 0.1479 -0.6993 -0.6993
vn 0.5774 -0.5774 -0.5773
vn 0.6993 -0.1479 -0.6993
vn 0.6993 -0.6993 -0.1479
vn -0.9673 0.1794 -0.1794
vn -0.1794 0.9673 -0.1794
vn -0.1794 0.1794 -0.9673
vn -0.6993 0.6993 -0.1479
vn -0.5774 0.5774 -0.5773
vn -0.1479 0.6993 -0.6993
vn -0.6993 0.1479 -0.6993
vn 0.9673 0.1794 -0.1794
vn 0.1794 0.1794 -0.9673
vn 0.1794 0.9673 -0.1794
vn 0.6993 0.1479 -0.6993
vn 0.5774 0.5774 -0.5773
vn 0.1479 0.6993 -0.6993
vn 0.6993 0.6993 -0.1479
vn 0.9579 0.1498 0.2451
vn 0.0488 0.0488 0.9976
vn 0.1498 0.9579 0.2451
vn 0.4063 0.1746 0.8969
vn 0.4437 0.4437 0.7786
vn 0.1746 0.4063 0.8969
vn 0.6674 0.6674 0.3304
vn -0.1498 0.9579 0.2451
vn -0.0488 0.0488 0.9976
vn -0.9579 0.1498 0.2451
vn -0.1746 0.4063 0.8969
vn -0.4437 0.4437 0.7786
vn -0.4063 0.1746 0.8969
vn -0.6674 0.6674 0.3304
vn 0.9579 -0.1498 0.2451
vn 0.1498 -0.9579 0.2451
vn 0.0488 -0.0488 0.9976
vn 0.6674 -0.6674 0.3304
vn 0.4437 -0.4437 0.7786
vn 0.1746 -0.4063 0.8969
vn 0.4063 -0.1746 0.8969
vn -0.9579 -0.1498 0.2451
vn -0.0488 -0.0488 0.9976
vn -0.1498 -0.9579 0.2451
vn -0.4063 -0.1746 0.8969
vn -0.4437 -0.4437 0.7786
vn -0.1746 -0.4063 0.8969
vn -0.6674 -0.6674 0.3304
vn -0.9673 -0.1794 0.1794
vn -0.1794 -0.9673 0.1794
vn -0.1794 -0.1794 0.9673
vn -0.6993 -0.6993 0.1479
vn -0.5774 -0.5774 0.5773
vn -0.1479 -0.6993 0.6993
vn -0.6993 -0.1479 0.6993
vn 0.1794 -0.9673 0.1794
vn 0.9673 -0.1794 0.1794
vn 0.1794 -0.1794 0.9673
vn 0.6993 -0.6993 0.1479
vn 0.5774 -0.5773 0.5773
vn 0.6993 -0.1479 0.6993
vn 0.1479 -0.6993 0.6993
vn -0.9673 0.1794 0.1794
vn -0.1794 0.1794 0.9673
vn -0.1794 0.9673 0.1794
vn -0.6993 0.1479 0.6993
vn -0.5774 0.5774 0.5773
vn -0.1479 0.6993 0.6993
vn -0.6993 0.6993 0.1479
vn 0.9673 0.1794 0.1794
vn 0.1794 0.9673 0.1794
vn 0.1794 0.1794 0.9673
vn 0.6993 0.6993 0.1479
vn 0.5774 0.5774 0.5773
vn 0.1479 0.6993 0.6993
vn 0.6993 0.1479 0.6993
vt 0.000000 0.000000
s 1
f 80/1/80 17/1/17 23/1/23
f 59/1/59 8/1/8 2/1/2
f 85/1/85 43/1/43 29/1/29
f 3/1/3 45/1/45 16/1/16
f 108/1/108 73/1/73 79/1/79
f 87/1/87 65/1/65 58/1/58
f 94/1/94 79/1/79 65/1/65
f 101/1/101 52/1/52 44/1/44
f 92/1/92 31/1/31 36/1/36
f 24/1/24 37/1/37 10/1/10
f 10/1/10 30/1/30 3/1/3
f 100/1/100 58/1/58 73/1/73
f 106/1/106 38/1/38 50/1/50
f 16/1/16 51/1/51 24/1/24
f 66/1/66 22/1/22 9/1/9
f 1/1/1 5/1/5 7/1/7
f 2/1/2 5/1/5 4/1/4
f 7/1/7 6/1/6 3/1/3
f 8/1/8 12/1/12 14/1/14
f 9/1/9 12/1/12 11/1/11
f 14/1/14 13/1/13 10/1/10
f 15/1/15 19/1/19 21/1/21
f 20/1/20 18/1/18 16/1/16
f 17/1/17 19/1/19 20/1/20
f 22/1/22 26/1/26 28/1/28
f 23/1/23 26/1/26 25/1/25
f 28/1/28 27/1/27 24/1/24
f 29/1/29 33/1/33 35/1/35
f 30/1/30 33/1/33 32/1/32
f 31/1/31 33/1/33 34/1/34
f 36/1/36 40/1/40 42/1/42
f 37/1/37 40/1/40 39/1/39
f 38/1/38 40/1/40 41/1/41
f 43/1/43 47/1/47 49/1/49
f 44/1/44 47/1/47 46/1/46
f 45/1/45 47/1/47 48/1/48
f 50/1/50 54/1/54 56/1/56
f 51/1/51 54/1/54 53/1/53
f 52/1/52 54/1/54 55/1/55
f 57/1/57 61/1/61 63/1/63
f 62/1/62 60/1/60 58/1/58
f 59/1/59 61/1/61 62/1/62
f 64/1/64 68/1/68 70/1/70
f 69/1/69 67/1/67 65/1/65
f 66/1/66 68/1/68 69/1/69
f 71/1/71 75/1/75 77/1/77
f 72/1/72 75/1/75 74/1/74
f 77/1/77 76/1/76 73/1/73
f 78/1/78 82/1/82 84/1/84
f 83/1/83 81/1/81 79/1/79
f 80/1/80 82/1/82 83/1/83
f 85/1/85 89/1/89 91/1/91
f 86/1/86 89/1/89 88/1/88
f 87/1/87 89/1/89 90/1/90
f 92/1/92 96/1/96 98/1/98
f 93/1/93 96/1/96 95/1/95
f 94/1/94 96/1/96 97/1/97
f 99/1/99 103/1/103 105/1/105
f 100/1/100 103/1/103 102/1/102
f 101/1/101 103/1/103 104/1/104
f 106/1/106 110/1/110 112/1/112
f 107/1/107 110/1/110 109/1/109
f 108/1/108 110/1/110 111/1/111
f 1/1/1 18/1/18 15/1/15
f 7/1/7 16/1/16 18/1/18
f 8/1/8 6/1/6 2/1/2
f 14/1/14 3/1/3 6/1/6
f 9/1/9 28/1/28 13/1/13
f 28/1/28 10/1/10 13/1/13
f 17/1/17 27/1/27 23/1/23
f 20/1/20 24/1/24 27/1/27
f 30/1/30 49/1/49 45/1/45
f 49/1/49 29/1/29 43/1/43
f 37/1/37 34/1/34 30/1/30
f 39/1/39 31/1/31 34/1/34
f 51/1/51 41/1/41 37/1/37
f 53/1/53 38/1/38 41/1/41
f 45/1/45 55/1/55 51/1/51
f 48/1/48 52/1/52 55/1/55
f 58/1/58 77/1/77 73/1/73
f 60/1/60 71/1/71 77/1/77
f 65/1/65 62/1/62 58/1/58
f 67/1/67 59/1/59 62/1/62
f 65/1/65 81/1/81 69/1/69
f 81/1/81 66/1/66 69/1/69
f 73/1/73 83/1/83 79/1/79
f 76/1/76 80/1/80 83/1/83
f 85/1/85 102/1/102 99/1/99
f 102/1/102 87/1/87 100/1/100
f 92/1/92 90/1/90 86/1/86
f 98/1/98 87/1/87 90/1/90
f 106/1/106 97/1/97 93/1/93
f 97/1/97 108/1/108 94/1/94
f 101/1/101 111/1/111 107/1/107
f 104/1/104 108/1/108 111/1/111
f 93/1/93 42/1/42 38/1/38
f 95/1/95 36/1/36 42/1/42
f 50/1/50 109/1/109 106/1/106
f 56/1/56 107/1/107 109/1/109
f 99/1/99 46/1/46 43/1/43
f 105/1/105 44/1/44 46/1/46
f 29/1/29 88/1/88 85/1/85
f 35/1/35 86/1/86 88/1/88
f 78/1/78 25/1/25 22/1/22
f 84/1/84 23/1/23 25/1/25
f 9/1/9 70/1/70 66/1/66
f 11/1/11 64/1/64 70/1/70
f 57/1/57 4/1/4 1/1/1
f 63/1/63 2/1/2 4/1/4
f 15/1/15 74/1/74 71/1/71
f 21/1/21 72/1/72 74/1/74
f 71/1/71 1/1/1 15/1/15
f 80/1/80 72/1/72 17/1/17
f 59/1/59 64/1/64 8/1/8
f 85/1/85 99/1/99 43/1/43
f 3/1/3 30/1/30 45/1/45
f 108/1/108 100/1/100 73/1/73
f 87/1/87 94/1/94 65/1/65
f 94/1/94 108/1/108 79/1/79
f 101/1/101 107/1/107 52/1/52
f 92/1/92 86/1/86 31/1/31
f 24/1/24 51/1/51 37/1/37
f 10/1/10 37/1/37 30/1/30
f 100/1/100 87/1/87 58/1/58
f 106/1/106 93/1/93 38/1/38
f 16/1/16 45/1/45 51/1/51
f 66/1/66 78/1/78 22/1/22
f 1/1/1 4/1/4 5/1/5
f 2/1/2 6/1/6 5/1/5
f 7/1/7 5/1/5 6/1/6
f 8/1/8 11/1/11 12/1/12
f 9/1/9 13/1/13 12/1/12
f 14/1/14 12/1/12 13/1/13
f 15/1/15 18/1/18 19/1/19
f 20/1/20 19/1/19 18/1/18
f 17/1/17 21/1/21 19/1/19
f 22/1/22 25/1/25 26/1/26
f 23/1/23 27/1/27 26/1/26
f 28/1/28 26/1/26 27/1/27
f 29/1/29 32/1/32 33/1/33
f 30/1/30 34/1/34 33/1/33
f 31/1/31 35/1/35 33/1/33
f 36/1/36 39/1/39 40/1/40
f 37/1/37 41/1/41 40/1/40
f 38/1/38 42/1/42 40/1/40
f 43/1/43 46/1/46 47/1/47
f 44/1/44 48/1/48 47/1/47
f 45/1/45 49/1/49 47/1/47
f 50/1/50 53/1/53 54/1/54
f 51/1/51 55/1/55 54/1/54
f 52/1/52 56/1/56 54/1/54
f 57/1/57 60/1/60 61/1/61
f 62/1/62 61/1/61 60/1/60
f 59/1/59 63/1/63 61/1/61
f 64/1/64 67/1/67 68/1/68
f 69/1/69 68/1/68 67/1/67
f 66/1/66 70/1/70 68/1/68
f 71/1/71 74/1/74 75/1/75
f 72/1/72 76/1/76 75/1/75
f 77/1/77 75/1/75 76/1/76
f 78/1/78 81/1/81 82/1/82
f 83/1/83 82/1/82 81/1/81
f 80/1/80 84/1/84 82/1/82
f 85/1/85 88/1/88 89/1/89
f 86/1/86 90/1/90 89/1/89
f 87/1/87 91/1/91 89/1/89
f 92/1/92 95/1/95 96/1/96
f 93/1/93 97/1/97 96/1/96
f 94/1/94 98/1/98 96/1/96
f 99/1/99 102/1/102 103/1/103
f 100/1/100 104/1/104 103/1/103
f 101/1/101 105/1/105 103/1/103
f 106/1/106 109/1/109 110/1/110
f 107/1/107 111/1/111 110/1/110
f 108/1/108 112/1/112 110/1/110
f 1/1/1 7/1/7 18/1/18
f 7/1/7 3/1/3 16/1/16
f 8/1/8 14/1/14 6/1/6
f 14/1/14 10/1/10 3/1/3
f 9/1/9 22/1/22 28/1/28
f 28/1/28 24/1/24 10/1/10
f 17/1/17 20/1/20 27/1/27
f 20/1/20 16/1/16 24/1/24
f 30/1/30 32/1/32 49/1/49
f 49/1/49 32/1/32 29/1/29
f 37/1/37 39/1/39 34/1/34
f 39/1/39 36/1/36 31/1/31
f 51/1/51 53/1/53 41/1/41
f 53/1/53 50/1/50 38/1/38
f 45/1/45 48/1/48 55/1/55
f 48/1/48 44/1/44 52/1/52
f 58/1/58 60/1/60 77/1/77
f 60/1/60 57/1/57 71/1/71
f 65/1/65 67/1/67 62/1/62
f 67/1/67 64/1/64 59/1/59
f 65/1/65 79/1/79 81/1/81
f 81/1/81 78/1/78 66/1/66
f 73/1/73 76/1/76 83/1/83
f 76/1/76 72/1/72 80/1/80
f 85/1/85 91/1/91 102/1/102
f 102/1/102 91/1/91 87/1/87
f 92/1/92 98/1/98 90/1/90
f 98/1/98 94/1/94 87/1/87
f 106/1/106 112/1/112 97/1/97
f 97/1/97 112/1/112 108/1/108
f 101/1/101 104/1/104 111/1/111
f 104/1/104 100/1/100 108/1/108
f 93/1/93 95/1/95 42/1/42
f 95/1/95 92/1/92 36/1/36
f 50/1/50 56/1/56 109/1/109
f 56/1/56 52/1/52 107/1/107
f 99/1/99 105/1/105 46/1/46
f 105/1/105 101/1/101 44/1/44
f 29/1/29 35/1/35 88/1/88
f 35/1/35 31/1/31 86/1/86
f 78/1/78 84/1/84 25/1/25
f 84/1/84 80/1/80 23/1/23
f 9/1/9 11/1/11 70/1/70
f 11/1/11 8/1/8 64/1/64
f 57/1/57 63/1/63 4/1/4
f 63/1/63 59/1/59 2/1/2
f 15/1/15 21/1/21 74/1/74
f 21/1/21 17/1/17 72/1/72
f 71/1/71 57/1/57 1/1/1
